<mxfile host="app.diagrams.net" modified="2020-10-16T12:09:26.758Z" agent="5.0 (Windows NT 10.0; Win64; x64) AppleWebKit/537.36 (KHTML, like Gecko) Chrome/86.0.4240.75 Safari/537.36" etag="ZYnC2rKQN4Y2qyTUeuvO" version="13.8.0" type="github">
  <diagram id="_poDrzYG-paUzscpQl_j" name="Page-1">
    <mxGraphModel dx="1422" dy="743" grid="1" gridSize="10" guides="1" tooltips="1" connect="1" arrows="1" fold="1" page="1" pageScale="1" pageWidth="827" pageHeight="1169" math="0" shadow="0">
      <root>
        <mxCell id="0" />
        <mxCell id="1" parent="0" />
        <mxCell id="1UEGQKNPIl2mFbHGZkAJ-1" value="" style="rounded=0;whiteSpace=wrap;html=1;" vertex="1" parent="1">
          <mxGeometry x="60" y="70" width="140" height="280" as="geometry" />
        </mxCell>
        <mxCell id="1UEGQKNPIl2mFbHGZkAJ-2" value="&lt;ul&gt;&lt;li&gt;gulp&lt;/li&gt;&lt;li&gt;&lt;span&gt;live reload&lt;/span&gt;&lt;br&gt;&lt;/li&gt;&lt;li&gt;CSS Mxin&lt;/li&gt;&lt;/ul&gt;" style="text;strokeColor=none;fillColor=none;html=1;whiteSpace=wrap;verticalAlign=middle;overflow=hidden;" vertex="1" parent="1">
          <mxGeometry x="70" y="70" width="120" height="200" as="geometry" />
        </mxCell>
        <mxCell id="1UEGQKNPIl2mFbHGZkAJ-4" value="note" style="text;strokeColor=none;fillColor=none;html=1;fontSize=24;fontStyle=1;verticalAlign=middle;align=center;" vertex="1" parent="1">
          <mxGeometry x="80" y="30" width="100" height="40" as="geometry" />
        </mxCell>
      </root>
    </mxGraphModel>
  </diagram>
</mxfile>
